<svg
   version="1.1"
   width="400"
   height="106.66667"
   viewBox="0 0 400 106.66667"
   xmlns="http://www.w3.org/2000/svg"
	 >
  <path
		style="stroke-width:0.133"
		d="m 80.273643,58.505112 q 0,3.410002 -1.653334,6.303336 -7.440003,12.710006 -25.626677,12.710006 -4.753336,0 -10.953338,-1.343334 -1.136667,3.203335 -3.823335,3.203335 -4.960002,0 -4.960002,-4.133336 0,-0.206666 0,-0.723333 0,-0.516667 0,-0.723334 0,-0.93 -0.310001,-1.136667 -1.343333,-0.62 -2.583334,-1.343334 -1.240001,-0.723334 -1.240001,-2.583334 0,-3.203335 3.100002,-3.616669 v -0.206666 q 0,-1.963334 0.103333,-6.09667 0.103334,-3.823335 0.103334,-6.200002 v -0.723334 q -2.170001,-1.343334 -2.170001,-3.100001 0,-1.963334 1.963334,-3.410002 V 13.76176 q 0,-1.653334 1.756667,-3.306668 1.860001,-1.7566679 3.513335,-1.7566679 2.273334,0 3.100001,0.6200003 1.033334,1.1366676 2.066668,2.2733346 l -0.826667,4.650002 q 7.130003,-9.6100044 18.083341,-9.6100044 8.680004,0 13.640006,6.3033364 4.546669,5.683335 4.546669,14.570006 0,5.063335 -2.170001,10.230004 -2.170001,5.476669 -5.78667,8.680004 10.126671,3.203335 10.126671,12.090005 z M 68.700305,27.091765 q 0,-12.710005 -9.19667,-12.710005 -6.613337,0 -12.296672,8.783337 -5.270003,7.95667 -5.270003,14.880006 v 6.613337 h 5.580003 q 10.850004,0 15.500006,-3.203335 5.683336,-4.030002 5.683336,-14.36334 z m 2.170001,30.793347 q 0,-4.030002 -10.023338,-5.270002 -4.133335,-0.413334 -13.640005,-0.413334 -3.410002,0 -5.580003,0.206667 -0.103333,2.686668 -0.103333,4.960002 v 6.40667 q 0,2.17 0.103333,3.720001 5.063336,2.066668 11.160005,2.066668 5.580002,0 11.366672,-3.100002 6.716669,-3.513334 6.716669,-8.57667 z m 28.313212,17.050007 q 0,1.860001 -1.550001,3.100002 -1.446667,1.343334 -3.410001,1.343334 -6.510003,0 -6.510003,-17.050008 0,-7.750003 0.103333,-23.25001 0.206667,-15.500006 0.206667,-23.25001 0,-1.24 -0.31,-3.616668 -0.31,-2.3766677 -0.31,-3.5133349 3.410001,-2.2733343 5.373336,-2.2733343 2.273334,0 4.340001,1.5500007 2.066668,1.4466673 2.066668,3.7200015 0,1.136667 -0.516667,2.686668 -0.723334,2.480001 -0.826667,2.686668 -1.343334,6.406669 -1.343334,18.186674 0,18.703342 0,19.220009 0.31,13.020005 2.170001,18.186674 0.516667,1.446667 0.516667,2.273334 z M 140.93005,57.368445 q 0,9.300004 -4.65,15.91334 -5.37333,7.543337 -14.26001,7.543337 -9.09333,0 -13.74333,-6.200003 -4.23667,-5.476669 -4.23667,-14.880006 0,-9.300004 4.65,-17.566674 5.37333,-9.816671 13.95001,-9.816671 2.68666,0 6.71666,2.376667 11.57334,6.923337 11.57334,22.63001 z m -9.09333,-0.206667 q 0,-15.810006 -7.64667,-15.810006 -5.47667,0 -8.26667,6.716669 -2.06667,5.063336 -2.06667,11.470005 0,13.743339 8.16333,13.743339 5.27001,0 7.85334,-5.683335 1.96334,-4.340002 1.96334,-10.436672 z m 72.64329,-14.466673 q 0,14.880007 -7.33667,25.213345 -8.16333,11.676671 -22.42334,11.676671 -4.03,0 -8.68,-1.55 -10.33334,-3.306668 -14.77668,-11.470005 -3.82333,-7.02667 -3.82333,-18.806675 0,-15.29334 7.33667,-26.970012 8.47334,-13.7433389 22.94001,-13.7433389 12.71,0 20.25334,11.8833389 6.51,10.230004 6.51,23.766676 z m -9.92,-0.93 q 0,-21.493343 -13.84667,-25.730011 -1.44667,-0.413334 -3.30667,-0.413334 -5.78667,0 -11.57334,5.166669 -9.19667,8.370004 -9.19667,29.863347 0,1.963334 0.82667,5.476669 1.75666,7.95667 5.27,11.470005 4.03,4.133335 11.78,4.133335 10.54001,0 15.91334,-10.230005 4.13334,-8.060003 4.13334,-19.736675 z m 53.52663,5.270002 q -0.20667,2.583335 -1.34333,9.093338 -1.03334,5.683335 -1.03334,9.093337 0,3.100001 0.31,9.300004 0.31,6.200003 0.31,9.300004 0,6.406669 -1.24,9.506671 -1.44666,3.926668 -5.47667,6.303336 -4.03,2.480003 -8.37,2.480003 -4.54667,0 -11.26334,-2.480003 -8.06,-2.893335 -8.06,-6.40667 0,-4.546668 4.23667,-4.546668 1.96333,0 2.68666,1.136667 1.34334,2.066667 1.75667,2.480001 0.51667,0.413333 3.41,0.93 2.89334,0.62 4.03001,0.62 9.3,0 9.3,-11.676671 0,-3.410002 -0.31,-5.786669 -4.44334,3.823335 -10.64334,3.823335 -2.58333,0 -5.78667,-1.446668 -3.20333,-1.446667 -4.85667,-3.410001 -3.20333,-3.720002 -3.20333,-11.056672 0,-8.783337 4.03,-19.323341 4.96,-12.916672 12.09001,-12.916672 4.34,0 8.26667,4.030001 2.89333,3.823335 5.78666,7.543337 0.82667,1.033334 2.58334,1.860001 2.17,1.033333 2.79,1.55 z m -10.43667,6.200003 q 0,-1.550001 -1.44667,-2.583334 -0.62,-9.506671 -6.61333,-9.506671 -3.41001,0 -5.68334,9.610004 -1.65333,7.33667 -1.65333,12.710005 0,10.126671 5.27,10.126671 4.96,0 7.85333,-8.060003 2.27334,-6.200003 2.27334,-12.296672 z m 71.40327,6.200003 q 0,4.960002 -4.44333,5.063335 0.51666,2.376668 2.27333,6.40667 -0.10333,2.273334 -1.86,3.720001 -1.75667,1.446667 -4.13333,1.446667 -1.86,0 -4.34001,-1.136667 -1.34333,-2.686667 -1.34333,-6.406669 0,-0.93 0.10333,-2.686668 0.10334,-1.756667 0.10334,-2.583334 0,0.723333 -3.41,0.723333 -5.78667,0 -13.74334,0.516667 -11.36667,0.62 -12.40001,1.756668 -0.93,1.136667 -1.24,11.056671 -1.34333,1.963334 -3.41,1.963334 -2.17,0 -4.44334,-1.756667 -2.27333,-1.860001 -2.27333,-3.926669 0,-0.723333 1.86,-5.786669 2.06667,-7.33667 6.71667,-22.010009 13.84667,-37.9233499 23.04334,-37.9233499 8.99001,0 13.84668,20.0466749 2.17,8.990004 4.03,27.590012 2.68667,0.620001 3.41,1.033334 1.65333,0.93 1.65333,2.893335 z m -14.46667,-3.926669 q -4.54667,-36.063349 -8.16334,-36.063349 -2.89333,0 -10.12667,16.946674 -5.16667,12.193339 -8.16333,21.183343 3.30666,-0.723334 9.81667,-1.756668 5.89,-0.723333 16.63667,-0.31 z M 343.4632,42.178439 q 0,0.723333 -0.20667,2.273334 -2.17,3.100001 -4.54667,3.100001 -1.96333,0 -3.51333,-2.273334 -0.20667,-4.650002 -3.30667,-4.650002 -1.86,0 -4.54667,9.816671 -1.24,4.340002 -1.24,12.090005 0,7.33667 0.72333,8.88667 0.82667,1.963335 0.82667,2.686668 0,1.756668 -1.65333,2.893335 -1.55,1.033334 -3.51334,1.033334 -5.58,0 -5.58,-5.166669 0,-0.516667 0.20667,-1.446668 0.31,-0.93 0.31,-1.343333 0,-5.270003 -0.51667,-15.60334 -0.51667,-10.436672 -0.51667,-15.603341 0,-4.650002 5.58,-4.650002 3.30667,0 4.54667,1.963335 2.89334,-3.203335 6.51001,-3.203335 2.48,0 4.75333,1.343334 1.55,0.826667 3.61667,3.616668 2.06667,2.686668 2.06667,4.236669 z m 27.69316,-1.446668 q 0,2.790001 -8.57667,3.926669 -0.20666,2.273334 -0.20666,10.333337 v 6.820003 q 0,2.066668 0.62,6.09667 0.72333,4.030001 0.72333,5.993336 0,1.653334 -1.65333,2.996668 -1.65334,1.24 -3.30667,1.24 -2.58334,0 -4.34,-4.443335 -1.34334,-3.410002 -1.34334,-6.613336 V 45.175107 q -4.75333,-0.723334 -5.47667,-0.930001 -2.68667,-0.826667 -2.68667,-2.376668 0,-0.413333 0.20667,-0.93 2.68667,-3.823335 5.99334,-3.823335 0.20666,0 0.62,0 0.41333,0.103333 0.62,0.103333 2.17,0 2.06667,-5.063335 v -7.543337 q -0.62,-1.136667 -0.62,-1.963334 0,-1.343334 1.55,-2.376668 1.65333,-1.136667 3.1,-1.136667 2.17,0 4.13333,2.066668 1.96334,1.963334 1.96334,4.236668 0,2.480001 -0.82667,4.960002 -0.72333,2.376668 -0.62,4.960003 v 0.413333 q 8.06,0.826667 8.06,4.960002 z"
  	aria-label="BloOgArt" />
</svg>
