<svg
	version="1.1"
  width="377"
  height="162"
  viewBox="0 0 377 162"
  xmlns="http://www.w3.org/2000/svg">
<path fill-rule="evenodd"
 d="M366.493,138.676 C365.680,141.808 364.869,144.736 364.057,147.463 C363.244,150.189 362.361,152.552 361.404,154.553 C360.447,156.554 359.373,158.120 358.185,159.251 C356.995,160.382 355.588,160.948 353.965,160.948 C352.341,160.948 350.920,160.687 349.702,160.165 L350.746,154.249 C351.558,154.539 352.369,154.597 353.182,154.423 C353.994,154.249 354.762,153.756 355.488,152.944 C356.212,152.131 356.880,150.928 357.489,149.333 C358.098,147.738 358.633,145.665 359.098,143.113 L345.004,99.613 L352.138,99.613 L360.316,127.714 L362.143,136.153 L362.578,136.153 L363.883,127.714 L370.495,99.613 L376.846,99.613 L366.493,138.676 ZM333.800,116.665 C333.800,112.606 333.322,109.517 332.365,107.399 C331.408,105.283 329.507,104.224 326.666,104.224 C324.635,104.224 322.795,104.950 321.142,106.399 C319.489,107.849 318.371,109.676 317.792,111.880 L317.792,143.113 L311.528,143.113 L311.528,82.213 L317.792,82.213 L317.792,103.702 L318.053,103.702 C319.213,102.194 320.648,100.961 322.360,100.004 C324.070,99.047 326.201,98.569 328.754,98.569 C330.668,98.569 332.335,98.830 333.757,99.352 C335.177,99.874 336.352,100.774 337.280,102.049 C338.207,103.325 338.903,105.022 339.368,107.138 C339.832,109.256 340.064,111.880 340.064,115.012 L340.064,143.113 L333.800,143.113 L333.800,116.665 ZM298.758,137.849 C297.366,139.909 295.670,141.475 293.669,142.547 C291.668,143.620 289.449,144.157 287.013,144.157 C285.330,144.157 283.997,144.055 283.011,143.852 C282.024,143.649 280.952,143.229 279.792,142.591 L279.792,160.513 L273.528,160.513 L273.528,99.613 L277.965,99.613 L278.922,104.311 L279.270,104.311 C281.415,100.483 284.780,98.569 289.362,98.569 C293.943,98.569 297.380,100.280 299.672,103.702 C301.962,107.125 303.108,112.721 303.108,120.493 C303.108,124.147 302.730,127.439 301.977,130.367 C301.223,133.297 300.150,135.791 298.758,137.849 ZM296.105,113.794 C295.785,111.823 295.278,110.126 294.582,108.704 C293.886,107.284 293.001,106.181 291.929,105.398 C290.855,104.615 289.536,104.224 287.970,104.224 C283.736,104.224 281.010,106.805 279.792,111.967 L279.792,136.240 C280.604,136.936 281.517,137.488 282.533,137.893 C283.547,138.299 284.895,138.502 286.578,138.502 C289.652,138.502 292.088,136.936 293.886,133.804 C295.683,130.672 296.583,126.206 296.583,120.406 C296.583,117.970 296.423,115.766 296.105,113.794 ZM276.408,66.773 C279.742,66.158 282.244,65.849 283.912,65.849 C288.551,65.849 291.669,67.735 293.265,71.504 L291.416,73.787 L288.480,73.787 C285.870,73.716 282.099,74.097 277.170,74.929 C272.239,75.762 268.578,76.180 266.186,76.180 C263.793,76.180 261.690,75.599 259.878,74.440 C257.703,73.135 256.616,71.359 256.616,69.111 C256.616,66.430 258.283,62.877 261.618,58.454 C263.647,55.844 267.092,51.966 271.950,46.817 C276.589,42.032 279.489,38.807 280.650,37.139 L280.106,37.030 C276.480,37.030 272.874,38.136 269.285,40.347 C265.697,42.559 263.793,43.664 263.576,43.664 C262.198,43.664 261.037,43.138 260.096,42.087 C259.153,41.037 258.682,39.822 258.682,38.444 C258.682,35.980 262.415,33.623 269.883,31.375 C276.191,29.563 281.085,28.656 284.565,28.656 C290.364,28.656 293.265,30.583 293.265,34.435 C293.265,36.036 292.974,37.344 292.395,38.362 C292.031,39.018 291.270,39.925 290.111,41.087 C285.832,45.378 281.591,49.667 277.387,53.956 C271.515,60.209 268.070,64.754 267.056,67.589 C267.708,67.662 268.324,67.697 268.905,67.697 C270.572,67.697 273.073,67.390 276.408,66.773 ZM261.192,102.962 C262.032,104.210 262.584,105.631 262.845,107.225 C263.106,108.821 263.236,110.488 263.236,112.228 C263.236,115.708 263.161,119.101 263.012,122.407 C262.862,125.713 262.789,128.845 262.789,131.803 C262.789,134.008 262.862,136.052 263.012,137.936 C263.161,139.822 263.439,141.605 263.845,143.287 L258.940,143.287 L257.419,138.154 L257.074,138.154 C256.209,139.663 254.944,140.968 253.275,142.069 C251.605,143.170 249.360,143.722 246.539,143.722 C243.430,143.722 240.882,142.634 238.896,140.459 C236.910,138.284 235.918,135.283 235.918,131.455 C235.918,128.962 236.334,126.874 237.169,125.191 C238.003,123.509 239.182,122.146 240.707,121.102 C242.231,120.058 244.043,119.318 246.143,118.883 C248.242,118.448 250.587,118.231 253.175,118.231 C253.750,118.231 254.325,118.231 254.900,118.231 C255.475,118.231 256.080,118.261 256.714,118.318 C256.885,116.521 256.972,114.925 256.972,113.533 C256.972,110.227 256.483,107.908 255.507,106.573 C254.529,105.239 252.747,104.572 250.162,104.572 C248.552,104.572 246.800,104.819 244.903,105.311 C243.006,105.805 241.426,106.429 240.162,107.182 L238.093,102.223 C239.775,101.179 241.819,100.367 244.227,99.787 C246.633,99.208 249.171,98.917 251.839,98.917 C254.275,98.917 256.233,99.280 257.712,100.004 C259.191,100.730 260.350,101.716 261.192,102.962 ZM256.798,123.277 C256.224,123.220 255.652,123.176 255.078,123.146 C254.505,123.118 253.932,123.103 253.360,123.103 C251.984,123.103 250.637,123.220 249.319,123.451 C248.000,123.683 246.826,124.090 245.795,124.669 C244.763,125.249 243.946,126.032 243.346,127.018 C242.743,128.005 242.443,129.251 242.443,130.759 C242.443,133.079 243.002,134.878 244.119,136.153 C245.237,137.429 246.683,138.067 248.460,138.067 C250.866,138.067 252.728,137.488 254.047,136.327 C255.365,135.167 256.281,133.891 256.798,132.499 L256.798,123.277 ZM218.413,76.832 C215.586,76.832 212.541,76.289 209.278,75.201 C202.028,72.882 196.844,68.858 193.727,63.130 C191.044,58.200 189.703,51.602 189.703,43.337 C189.703,32.608 192.276,23.147 197.425,14.954 C203.369,5.312 211.416,0.490 221.567,0.490 C230.485,0.490 237.589,4.660 242.882,12.996 C247.450,20.174 249.733,28.512 249.733,38.009 C249.733,48.449 247.159,57.295 242.012,64.544 C236.284,72.737 228.418,76.832 218.413,76.832 ZM224.721,9.951 C223.705,9.662 222.546,9.516 221.241,9.516 C217.180,9.516 213.120,11.329 209.061,14.954 C202.607,20.826 199.382,31.303 199.382,46.382 C199.382,47.760 199.671,49.682 200.252,52.146 C201.484,57.730 203.333,61.753 205.798,64.217 C208.626,67.118 212.758,68.567 218.196,68.567 C225.591,68.567 231.173,64.979 234.943,57.801 C237.842,52.146 239.293,45.223 239.293,37.030 C239.293,21.951 234.435,12.925 224.721,9.951 ZM198.713,99.613 C200.684,100.135 202.424,100.744 203.933,101.440 L203.933,145.114 C203.933,150.739 202.685,154.887 200.192,157.555 C197.698,160.222 194.072,161.557 189.317,161.557 C186.416,161.557 184.039,161.310 182.183,160.817 C180.326,160.324 178.819,159.759 177.659,159.121 L179.486,153.727 C180.646,154.249 181.922,154.741 183.314,155.206 C184.706,155.670 186.416,155.902 188.447,155.902 C191.984,155.902 194.407,154.915 195.712,152.944 C197.017,150.972 197.669,147.666 197.669,143.026 L197.669,139.807 L197.408,139.807 C196.480,141.142 195.290,142.186 193.841,142.939 C192.391,143.692 190.535,144.070 188.273,144.070 C183.575,144.070 180.124,142.258 177.920,138.632 C175.715,135.008 174.614,129.310 174.614,121.537 C174.614,114.055 176.050,108.400 178.921,104.572 C181.792,100.744 186.040,98.830 191.666,98.830 C194.392,98.830 196.741,99.091 198.713,99.613 ZM183.836,108.530 C182.038,111.227 181.139,115.534 181.139,121.450 C181.139,123.886 181.283,126.134 181.574,128.192 C181.864,130.252 182.357,132.050 183.053,133.586 C183.749,135.124 184.633,136.313 185.707,137.153 C186.779,137.995 188.099,138.415 189.665,138.415 C191.869,138.415 193.609,137.836 194.885,136.675 C196.160,135.515 197.089,133.775 197.669,131.455 L197.669,105.877 C195.929,104.950 193.696,104.485 190.970,104.485 C188.012,104.485 185.633,105.833 183.836,108.530 ZM163.082,78.029 C156.702,78.029 151.881,75.854 148.618,71.504 C145.645,67.662 144.160,62.442 144.160,55.844 C144.160,49.319 145.791,43.157 149.053,37.356 C152.822,30.469 157.716,27.025 163.735,27.025 C165.619,27.025 167.976,27.859 170.803,29.526 C178.922,34.384 182.983,42.323 182.983,53.342 C182.983,59.867 181.352,65.451 178.090,70.090 C174.319,75.381 169.317,78.029 163.082,78.029 ZM165.366,36.486 C161.522,36.486 158.623,38.843 156.666,43.555 C155.215,47.108 154.491,51.132 154.491,55.626 C154.491,65.269 157.354,70.090 163.082,70.090 C166.780,70.090 169.534,68.097 171.347,64.109 C172.724,61.064 173.413,57.403 173.413,53.125 C173.413,42.032 170.730,36.486 165.366,36.486 ZM152.187,98.569 C157.523,98.569 161.453,100.454 163.976,104.224 C166.499,107.995 167.760,113.707 167.760,121.363 C167.760,129.251 166.397,135.022 163.671,138.676 C160.944,142.330 157.116,144.157 152.187,144.157 C146.850,144.157 142.922,142.273 140.399,138.502 C137.876,134.732 136.614,129.019 136.614,121.363 C136.614,113.533 137.963,107.777 140.660,104.093 C143.357,100.411 147.198,98.569 152.187,98.569 ZM143.139,121.363 C143.139,123.916 143.298,126.235 143.618,128.323 C143.936,130.411 144.458,132.209 145.184,133.717 C145.908,135.226 146.850,136.400 148.011,137.240 C149.171,138.082 150.563,138.502 152.187,138.502 C155.202,138.502 157.464,137.153 158.973,134.456 C160.481,131.759 161.235,127.396 161.235,121.363 C161.235,118.870 161.075,116.564 160.757,114.446 C160.437,112.330 159.915,110.518 159.191,109.009 C158.465,107.501 157.523,106.327 156.363,105.485 C155.202,104.645 153.810,104.224 152.187,104.224 C149.229,104.224 146.981,105.587 145.445,108.313 C143.907,111.040 143.139,115.390 143.139,121.363 ZM115.045,53.995 C114.175,54.430 113.305,54.902 112.435,55.409 C111.274,55.917 110.368,56.170 109.716,56.170 C107.903,56.170 106.489,55.409 105.475,53.886 C104.459,52.364 103.952,50.661 103.952,48.775 C103.952,47.181 104.785,45.876 106.453,44.860 C107.541,44.280 110.948,43.592 116.676,42.794 C121.896,42.141 125.556,41.815 127.660,41.815 C133.604,41.815 136.577,45.477 136.577,52.799 C136.577,59.106 133.821,64.725 128.312,69.655 C122.802,74.586 116.856,77.050 110.477,77.050 C101.269,77.050 94.454,73.456 90.032,66.268 C86.479,60.389 84.703,52.511 84.703,42.635 C84.703,32.617 86.841,23.541 91.120,15.409 C96.267,5.463 103.371,0.490 112.435,0.490 C116.929,0.490 120.844,1.545 124.180,3.654 C127.877,6.055 130.161,9.329 131.031,13.475 C131.755,16.894 132.118,18.530 132.118,18.384 C132.118,27.988 129.943,32.789 125.593,32.789 C124.288,32.789 123.092,32.352 122.005,31.478 C120.917,30.605 120.373,29.511 120.373,28.199 C120.373,27.472 120.754,26.415 121.515,25.030 C122.277,23.647 122.657,22.554 122.657,21.752 C122.657,17.599 122.151,14.758 121.142,13.229 C119.840,11.117 117.277,10.060 113.451,10.060 C109.551,10.060 105.940,12.493 102.620,17.360 C99.876,21.428 98.071,25.677 97.205,30.107 C96.338,34.829 95.905,39.188 95.905,43.181 C95.905,50.010 96.447,54.950 97.531,57.1000 C99.264,62.939 102.768,66.171 108.042,67.696 C109.633,68.132 110.933,68.350 111.944,68.350 C114.545,68.350 117.291,67.262 120.181,65.087 C122.710,63.058 124.661,60.775 126.034,58.236 C126.827,56.714 127.296,54.793 127.442,52.472 L127.007,52.146 C121.859,52.146 117.872,52.763 115.045,53.995 ZM102.976,104.224 C105.499,107.995 106.760,113.707 106.760,121.363 C106.760,129.251 105.397,135.022 102.671,138.676 C99.944,142.330 96.116,144.157 91.187,144.157 C85.850,144.157 81.922,142.273 79.399,138.502 C76.876,134.732 75.614,129.019 75.614,121.363 C75.614,113.533 76.963,107.777 79.660,104.093 C82.357,100.411 86.198,98.569 91.187,98.569 C96.523,98.569 100.453,100.454 102.976,104.224 ZM84.445,108.313 C82.907,111.040 82.139,115.390 82.139,121.363 C82.139,123.916 82.298,126.235 82.618,128.323 C82.936,130.411 83.458,132.209 84.184,133.717 C84.908,135.226 85.850,136.400 87.011,137.240 C88.171,138.082 89.563,138.502 91.187,138.502 C94.202,138.502 96.464,137.153 97.973,134.456 C99.481,131.759 100.235,127.396 100.235,121.363 C100.235,118.870 100.075,116.564 99.757,114.446 C99.437,112.330 98.915,110.518 98.191,109.009 C97.465,107.501 96.523,106.327 95.363,105.485 C94.202,104.645 92.810,104.224 91.187,104.224 C88.229,104.224 85.981,105.587 84.445,108.313 ZM61.800,116.665 C61.800,112.606 61.322,109.517 60.365,107.399 C59.408,105.283 57.507,104.224 54.666,104.224 C52.635,104.224 50.795,104.950 49.142,106.399 C47.489,107.849 46.371,109.676 45.792,111.880 L45.792,143.113 L39.528,143.113 L39.528,82.213 L45.792,82.213 L45.792,103.702 L46.053,103.702 C47.213,102.194 48.648,100.961 50.360,100.004 C52.070,99.047 54.201,98.569 56.754,98.569 C58.668,98.569 60.335,98.830 61.757,99.352 C63.177,99.874 64.352,100.774 65.280,102.049 C66.207,103.325 66.903,105.022 67.368,107.138 C67.832,109.256 68.064,111.880 68.064,115.012 L68.064,143.113 L61.800,143.113 L61.800,116.665 ZM26.324,115.751 C24.554,117.347 22.524,118.507 20.234,119.231 C17.942,119.957 15.579,120.319 13.143,120.319 C12.911,120.319 12.534,120.319 12.012,120.319 C11.490,120.319 10.938,120.305 10.359,120.275 C9.779,120.247 9.213,120.203 8.663,120.145 C8.111,120.088 7.719,120.029 7.488,119.971 L7.488,143.113 L0.963,143.113 L0.963,82.822 C2.819,82.300 4.791,81.952 6.879,81.778 C8.967,81.604 11.025,81.517 13.056,81.517 C15.375,81.517 17.667,81.778 19.929,82.300 C22.191,82.822 24.236,83.779 26.063,85.171 C27.890,86.563 29.369,88.477 30.500,90.913 C31.631,93.349 32.196,96.452 32.196,100.222 C32.196,103.876 31.659,106.979 30.587,109.531 C29.513,112.084 28.092,114.157 26.324,115.751 ZM24.323,94.132 C23.655,92.509 22.785,91.204 21.713,90.217 C20.639,89.231 19.377,88.535 17.928,88.129 C16.478,87.724 14.970,87.520 13.404,87.520 C12.243,87.520 11.127,87.563 10.055,87.650 C8.981,87.737 8.126,87.868 7.488,88.042 L7.488,113.968 C7.719,114.085 8.082,114.157 8.576,114.185 C9.068,114.215 9.576,114.244 10.098,114.272 C10.620,114.302 11.127,114.316 11.621,114.316 C12.113,114.316 12.476,114.316 12.708,114.316 C14.331,114.316 15.897,114.113 17.406,113.707 C18.914,113.302 20.247,112.562 21.408,111.488 C22.568,110.416 23.510,108.965 24.236,107.138 C24.960,105.311 25.323,103.006 25.323,100.222 C25.323,97.786 24.989,95.756 24.323,94.132 ZM116.485,90.1000 L122.749,88.999 L122.749,99.613 L132.145,99.613 L132.145,105.268 L122.749,105.268 L122.749,131.194 C122.749,133.747 123.054,135.587 123.663,136.718 C124.272,137.849 125.272,138.415 126.664,138.415 C127.824,138.415 128.824,138.284 129.666,138.023 C130.506,137.762 131.419,137.429 132.406,137.023 L133.624,141.982 C132.348,142.621 130.941,143.127 129.405,143.504 C127.867,143.881 126.258,144.070 124.576,144.070 C121.675,144.070 119.602,143.127 118.356,141.242 C117.108,139.358 116.485,136.298 116.485,132.064 L116.485,105.268 L111.178,105.268 L111.178,99.613 L116.485,99.613 L116.485,90.1000 ZM220.096,104.224 L220.357,104.224 C221.169,102.542 222.228,101.222 223.533,100.265 C224.838,99.308 226.417,98.830 228.274,98.830 C229.608,98.830 231.115,99.091 232.798,99.613 L231.580,105.964 C230.071,105.442 228.738,105.181 227.578,105.181 C225.721,105.181 224.214,105.718 223.054,106.790 C221.893,107.864 221.140,109.300 220.792,111.097 L220.792,143.113 L214.528,143.113 L214.528,99.613 L218.965,99.613 L220.096,104.224 Z" aria-label="GoOz Photography"/>
</svg>
